<?xml version="1.0" encoding="UTF-8" standalone="no"?>
<!-- Created with Inkscape (http://www.inkscape.org/) -->

<svg
   xmlns:dc="http://purl.org/dc/elements/1.1/"
   xmlns:cc="http://creativecommons.org/ns#"
   xmlns:rdf="http://www.w3.org/1999/02/22-rdf-syntax-ns#"
   xmlns:svg="http://www.w3.org/2000/svg"
   xmlns="http://www.w3.org/2000/svg"
   xmlns:sodipodi="http://sodipodi.sourceforge.net/DTD/sodipodi-0.dtd"
   xmlns:inkscape="http://www.inkscape.org/namespaces/inkscape"
   width="200"
   height="50"
   id="svg2"
   version="1.1"
   inkscape:version="0.48.4 r9939"
   sodipodi:docname="New document 1">
  <defs
     id="defs4" />
  <sodipodi:namedview
     id="base"
     pagecolor="#ffffff"
     bordercolor="#666666"
     borderopacity="1.0"
     inkscape:pageopacity="0.0"
     inkscape:pageshadow="2"
     inkscape:zoom="3.959798"
     inkscape:cx="131.38465"
     inkscape:cy="-8.6193044"
     inkscape:document-units="px"
     inkscape:current-layer="layer1"
     showgrid="false"
     inkscape:window-width="1920"
     inkscape:window-height="1025"
     inkscape:window-x="0"
     inkscape:window-y="30"
     inkscape:window-maximized="1" />
  <metadata
     id="metadata7">
    <rdf:RDF>
      <cc:Work
         rdf:about="">
        <dc:format>image/svg+xml</dc:format>
        <dc:type
           rdf:resource="http://purl.org/dc/dcmitype/StillImage" />
        <dc:title></dc:title>
      </cc:Work>
    </rdf:RDF>
  </metadata>
  <g
     inkscape:label="Layer 1"
     inkscape:groupmode="layer"
     id="layer1"
     transform="translate(0,-1002.3622)">
    <g
       id="layer1-4"
       transform="translate(-0.12905048,0.33444536)">
      <g
         id="g2986"
         transform="matrix(0.7053774,0,0,0.7053774,-7.1111143,990.04118)">
        <g
           id="g2988"
           transform="translate(0,-0.86357838)">
          <path
             style="fill:#ffffff"
             id="path2990"
             d="m 15.875,39.642 h 9.691 c 9.122,0 11.534,5.481 11.534,10.086 0,6.096 -4.868,10.963 -12.805,10.963 h -4.912 v 11.841 h -3.508 v -32.89 z m 3.508,17.542 h 5.218 c 4.342,0 9.209,-2.062 9.209,-7.455 0,-4.167 -2.5,-6.797 -8.245,-6.797 h -6.183 v 14.252 z"
             inkscape:connector-curvature="0" />
          <path
             style="fill:#ffffff"
             id="path2992"
             d="m 64.157,39.642 v 19.602 c 0,7.236 -4.78,13.639 -12.323,13.639 -7.455,0 -12.235,-6.402 -12.235,-13.683 V 39.642 h 3.289 V 59.2 c 0,5.219 3.201,10.438 8.946,10.394 5.438,-0.044 9.034,-5.175 9.034,-10.35 V 39.642 h 3.289 z"
             inkscape:connector-curvature="0" />
          <path
             style="fill:#ffffff"
             id="path2994"
             d="m 88.539,45.475 c -10.438,-5.043 -17.717,-2.851 -17.717,3.333 0,4.429 5.745,5.175 10.568,6.709 4.386,1.403 7.412,3.641 7.412,8.333 0,7.542 -5.394,9.428 -10.218,9.472 -3.64,0.044 -7.236,-0.833 -9.999,-2.061 l -0.79,-4.079 c 10.438,5.044 17.717,2.851 17.717,-3.332 0,-4.43 -5.789,-5.088 -10.569,-6.71 -4.385,-1.491 -7.411,-3.64 -7.411,-8.333 0,-7.542 5.394,-9.428 10.218,-9.472 3.64,-0.044 7.236,0.833 9.999,2.061 l 0.79,4.079 z"
             inkscape:connector-curvature="0" />
          <path
             style="fill:#ffffff"
             id="path2996"
             d="m 115.859,39.642 v 32.89 H 112.57 V 57.71 H 95.467 v 14.822 h -3.289 v -32.89 h 3.289 V 54.421 H 112.57 V 39.642 h 3.289 z"
             inkscape:connector-curvature="0" />
          <path
             style="fill:#ffffff"
             id="path2998"
             d="m 120.551,39.642 h 9.691 c 9.122,0 11.534,5.481 11.534,10.086 0,6.096 -4.868,10.963 -12.805,10.963 h -4.912 v 11.841 h -3.508 v -32.89 z m 3.508,17.542 h 5.218 c 4.342,0 9.209,-2.062 9.209,-7.455 0,-4.167 -2.5,-6.797 -8.245,-6.797 h -6.183 v 14.252 z"
             inkscape:connector-curvature="0" />
          <path
             style="fill:#ffffff"
             id="path3000"
             d="m 168.832,39.642 v 19.602 c 0,7.236 -4.779,13.639 -12.322,13.639 -7.455,0 -12.235,-6.402 -12.235,-13.683 V 39.642 h 3.289 V 59.2 c 0,5.219 3.201,10.438 8.946,10.394 5.438,-0.044 9.033,-5.175 9.033,-10.35 V 39.642 h 3.289 z"
             inkscape:connector-curvature="0" />
          <path
             style="fill:#ffffff"
             id="path3002"
             d="m 193.215,45.475 c -10.438,-5.043 -17.717,-2.851 -17.717,3.333 0,4.429 5.744,5.175 10.568,6.709 4.386,1.403 7.411,3.641 7.411,8.333 0,7.542 -5.394,9.428 -10.218,9.472 -3.64,0.044 -7.235,-0.833 -9.998,-2.061 l -0.79,-4.079 c 10.438,5.044 17.717,2.851 17.717,-3.332 0,-4.43 -5.788,-5.088 -10.568,-6.71 -4.386,-1.491 -7.411,-3.64 -7.411,-8.333 0,-7.542 5.394,-9.428 10.218,-9.472 3.64,-0.044 7.235,0.833 9.999,2.061 l 0.789,4.079 z"
             inkscape:connector-curvature="0" />
          <path
             style="fill:#ffffff"
             id="path3004"
             d="m 220.535,39.642 v 32.89 h -3.289 V 57.71 h -17.104 v 14.822 h -3.289 v -32.89 h 3.289 v 14.779 h 17.104 V 39.642 h 3.289 z"
             inkscape:connector-curvature="0" />
        </g>
        <g
           id="g3006">
          <path
             style="fill:#ffffff"
             id="path3008"
             d="m 252.246,44.022 3.159,0.687 v 8.13 c -6.043,2.828 -14.612,-0.275 -14.612,-9.586 0,-6.29 4.257,-10.382 8.844,-10.52 1.318,-0.027 3.214,0.083 5.219,0.604 l 0.632,3.268 c -8.487,-2.774 -11.536,2.445 -11.536,6.647 0,3.653 2.72,8.212 8.295,7.141 v -6.371 z"
             inkscape:connector-curvature="0" />
          <path
             style="fill:#ffffff"
             id="path3010"
             d="m 258.51,43.198 c 0,-5.85 4.202,-10.629 9.448,-10.629 5.219,0 9.448,4.779 9.448,10.629 0,5.878 -4.229,10.629 -9.448,10.629 -5.246,0 -9.448,-4.751 -9.448,-10.629 z m 15.765,0 c 0,-4.12 -2.829,-7.471 -6.317,-7.471 -3.488,0 -6.317,3.351 -6.317,7.471 0,4.147 2.829,7.471 6.317,7.471 3.488,0 6.317,-3.324 6.317,-7.471 z"
             inkscape:connector-curvature="0" />
        </g>
        <g
           style="fill:#16a085;fill-opacity:1"
           id="g3012"
           transform="translate(-1.6071429,5.8928572)">
          <path
             style="fill:#16a085;fill-opacity:1"
             id="path3014"
             d="M 286.904,35.309 C 283.365,27.021 275.136,21.197 265.57,21.197 h -11.15 c -12.783,0 -23.186,10.401 -23.186,23.186 0,3.555 0.828,6.915 2.266,9.926 1.434,3.008 3.283,5.267 5.799,7.396 0.725,2.656 1.238,7.137 -5.092,10.693 0,0 9.25,1.58 13.09,-6.058 2.691,0.946 4.42,1.227 7.123,1.227 h 11.15 c 12.783,0 23.186,-10.401 23.186,-23.184 0,-3.219 -0.662,-6.285 -1.852,-9.074 z"
             inkscape:connector-curvature="0" />
          <path
             style="fill:#16a085;fill-opacity:1"
             id="path3016"
             d="m 236.217,73.533 c -1.287,0 -2.143,-0.144 -2.178,-0.15 l -2.782,-0.475 2.46,-1.383 c 5.407,-3.038 5.338,-6.685 4.694,-9.265 -2.618,-2.262 -4.418,-4.593 -5.813,-7.521 -1.568,-3.285 -2.363,-6.77 -2.363,-10.357 0,-13.336 10.85,-24.186 24.186,-24.186 h 11.15 c 9.7,0 18.436,5.778 22.254,14.72 1.281,3.005 1.932,6.19 1.932,9.466 0,13.335 -10.85,24.184 -24.186,24.184 h -11.15 c -2.591,0 -4.316,-0.252 -6.648,-1.01 -3.055,5.178 -8.497,5.977 -11.556,5.977 z M 254.42,22.197 c -12.233,0 -22.186,9.953 -22.186,22.186 0,3.287 0.729,6.481 2.168,9.496 1.311,2.75 3.021,4.929 5.543,7.063 l 0.236,0.201 0.082,0.3 c 1.102,4.039 0.095,7.41 -2.993,10.056 2.827,-0.194 6.955,-1.275 9.133,-5.606 l 0.396,-0.786 0.83,0.292 c 2.55,0.896 4.137,1.17 6.791,1.17 h 11.15 c 12.233,0 22.186,-9.952 22.186,-22.184 0,-3.004 -0.596,-5.925 -1.771,-8.681 C 282.482,27.5 274.468,22.199 265.571,22.199 H 254.42 z"
             inkscape:connector-curvature="0" />
        </g>
        <g
           id="g3018">
          <path
             style="fill:none"
             id="path3020"
             d="m 271.221,35.892 c -3.941,0 -7.137,3.786 -7.137,8.441 0,4.686 3.195,8.439 7.137,8.439 3.942,0 7.139,-3.753 7.139,-8.439 -0.001,-4.656 -3.198,-8.441 -7.139,-8.441 z"
             inkscape:connector-curvature="0" />
        </g>
        <g
           id="g3022"
           transform="translate(-1.6071429,5.8928572)">
          <g
             id="g3024">
            <path
               style="fill:#ffffff"
               id="path3026"
               d="m 255.67,38.349 0.012,-3.229 c -2.229,-0.487 -3.943,-0.503 -5.273,-0.476 -4.619,0.138 -8.906,4.259 -8.906,10.594 0,9.377 8.629,12.501 14.715,9.654 l 0.033,-6.256 v -3.387 l -6.59,-1.374 v 3.239 l 3.375,0.625 v 4.69 c -5.613,1.08 -8.352,-3.516 -8.352,-7.192 0,-4.232 3.048,-8.699 10.986,-6.888 z"
               inkscape:connector-curvature="0" />
          </g>
          <g
             id="g3028">
            <path
               style="fill:#ffffff"
               id="path3030"
               d="m 269.277,34.914 c -5.111,0 -9.207,4.658 -9.207,10.359 0,5.729 4.096,10.361 9.207,10.361 5.088,0 9.209,-4.632 9.209,-10.361 0,-5.701 -4.121,-10.359 -9.209,-10.359 z m 0,17.641 c -3.396,0 -6.154,-3.238 -6.154,-7.282 0,-4.015 2.758,-7.282 6.154,-7.282 3.402,0 6.158,3.268 6.158,7.282 10e-4,4.044 -2.755,7.282 -6.158,7.282 z"
               inkscape:connector-curvature="0" />
          </g>
        </g>
      </g>
    </g>
  </g>
</svg>
