<?xml version="1.0" encoding="utf-8"?>
<!-- Generator: Adobe Illustrator 15.1.0, SVG Export Plug-In . SVG Version: 6.00 Build 0)  -->
<!DOCTYPE svg PUBLIC "-//W3C//DTD SVG 1.1//EN" "http://www.w3.org/Graphics/SVG/1.1/DTD/svg11.dtd">
<svg version="1.1" id="Layer_1" xmlns="http://www.w3.org/2000/svg" xmlns:xlink="http://www.w3.org/1999/xlink" x="0px" y="0px"
	 width="300px" height="100px" viewBox="0 0 300 100" enable-background="new 0 0 300 100" xml:space="preserve">
<g>
	<g>
		<path fill="#5B5B5B" d="M15.875,39.642h9.691c9.122,0,11.534,5.481,11.534,10.086c0,6.096-4.868,10.963-12.805,10.963h-4.912
			v11.841h-3.508V39.642z M19.383,57.184h5.218c4.342,0,9.209-2.062,9.209-7.455c0-4.167-2.5-6.797-8.245-6.797h-6.183V57.184z"/>
		<path fill="#5B5B5B" d="M64.157,39.642v19.602c0,7.236-4.78,13.639-12.323,13.639c-7.455,0-12.235-6.402-12.235-13.683V39.642
			h3.289V59.2c0,5.219,3.201,10.438,8.946,10.394c5.438-0.044,9.034-5.175,9.034-10.35V39.642H64.157z"/>
		<path fill="#5B5B5B" d="M88.539,45.475c-10.438-5.043-17.717-2.851-17.717,3.333c0,4.429,5.745,5.175,10.568,6.709
			c4.386,1.403,7.412,3.641,7.412,8.333c0,7.542-5.394,9.428-10.218,9.472c-3.64,0.044-7.236-0.833-9.999-2.061l-0.79-4.079
			c10.438,5.044,17.717,2.851,17.717-3.332c0-4.43-5.789-5.088-10.569-6.71c-4.385-1.491-7.411-3.64-7.411-8.333
			c0-7.542,5.394-9.428,10.218-9.472c3.64-0.044,7.236,0.833,9.999,2.061L88.539,45.475z"/>
		<path fill="#5B5B5B" d="M115.859,39.642v32.89h-3.289V57.71H95.467v14.822h-3.289v-32.89h3.289v14.779h17.103V39.642H115.859z"/>
		<path fill="#5B5B5B" d="M120.551,39.642h9.691c9.122,0,11.534,5.481,11.534,10.086c0,6.096-4.868,10.963-12.805,10.963h-4.912
			v11.841h-3.508V39.642z M124.059,57.184h5.218c4.342,0,9.209-2.062,9.209-7.455c0-4.167-2.5-6.797-8.245-6.797h-6.183V57.184z"/>
		<path fill="#5B5B5B" d="M168.832,39.642v19.602c0,7.236-4.779,13.639-12.322,13.639c-7.455,0-12.235-6.402-12.235-13.683V39.642
			h3.289V59.2c0,5.219,3.201,10.438,8.946,10.394c5.438-0.044,9.033-5.175,9.033-10.35V39.642H168.832z"/>
		<path fill="#5B5B5B" d="M193.215,45.475c-10.438-5.043-17.717-2.851-17.717,3.333c0,4.429,5.744,5.175,10.568,6.709
			c4.386,1.403,7.411,3.641,7.411,8.333c0,7.542-5.394,9.428-10.218,9.472c-3.64,0.044-7.235-0.833-9.998-2.061l-0.79-4.079
			c10.438,5.044,17.717,2.851,17.717-3.332c0-4.43-5.788-5.088-10.568-6.71c-4.386-1.491-7.411-3.64-7.411-8.333
			c0-7.542,5.394-9.428,10.218-9.472c3.64-0.044,7.235,0.833,9.999,2.061L193.215,45.475z"/>
		<path fill="#5B5B5B" d="M220.535,39.642v32.89h-3.289V57.71h-17.104v14.822h-3.289v-32.89h3.289v14.779h17.104V39.642H220.535z"/>
	</g>
	<g>
		<path fill="#FFFFFF" d="M252.246,44.022l3.159,0.687v8.13c-6.043,2.828-14.612-0.275-14.612-9.586
			c0-6.29,4.257-10.382,8.844-10.52c1.318-0.027,3.214,0.083,5.219,0.604l0.632,3.268c-8.487-2.774-11.536,2.445-11.536,6.647
			c0,3.653,2.72,8.212,8.295,7.141V44.022z"/>
		<path fill="#FFFFFF" d="M258.51,43.198c0-5.85,4.202-10.629,9.448-10.629c5.219,0,9.448,4.779,9.448,10.629
			c0,5.878-4.229,10.629-9.448,10.629C262.712,53.827,258.51,49.076,258.51,43.198z M274.275,43.198c0-4.12-2.829-7.471-6.317-7.471
			s-6.317,3.351-6.317,7.471c0,4.147,2.829,7.471,6.317,7.471S274.275,47.345,274.275,43.198z"/>
	</g>
	<g>
		<path fill="#16a085" d="M286.904,35.309c-3.539-8.288-11.768-14.112-21.334-14.112h-11.15c-12.783,0-23.186,10.401-23.186,23.186
			c0,3.555,0.828,6.915,2.266,9.926c1.434,3.008,3.283,5.267,5.799,7.396c0.725,2.656,1.238,7.137-5.092,10.693
			c0,0,9.25,1.58,13.09-6.058c2.691,0.946,4.42,1.227,7.123,1.227h11.15c12.783,0,23.186-10.401,23.186-23.184
			C288.756,41.164,288.094,38.098,286.904,35.309z"/>
	</g>
	<g>
		<path fill="none" d="M271.221,35.892c-3.941,0-7.137,3.786-7.137,8.441c0,4.686,3.195,8.439,7.137,8.439s7.139-3.753,7.139-8.439
			C278.359,39.677,275.162,35.892,271.221,35.892z"/>
	</g>
	<g>
		<g>
			<path fill="#FFFFFF" d="M255.67,38.349l0.012-3.229c-2.229-0.487-3.943-0.503-5.273-0.476c-4.619,0.138-8.906,4.259-8.906,10.594
				c0,9.377,8.629,12.501,14.715,9.654l0.033-6.256v-3.387l-6.59-1.374v3.239l3.375,0.625v4.69c-5.613,1.08-8.352-3.516-8.352-7.192
				C244.684,41.005,247.732,36.538,255.67,38.349z"/>
		</g>
		<g>
			<path fill="#FFFFFF" d="M269.277,34.914c-5.111,0-9.207,4.658-9.207,10.359c0,5.729,4.096,10.361,9.207,10.361
				c5.088,0,9.209-4.632,9.209-10.361C278.486,39.572,274.365,34.914,269.277,34.914z M269.277,52.555
				c-3.396,0-6.154-3.238-6.154-7.282c0-4.015,2.758-7.282,6.154-7.282c3.402,0,6.158,3.268,6.158,7.282
				C275.436,49.317,272.68,52.555,269.277,52.555z"/>
		</g>
	</g>
</g>
</svg>
